<svg width="164" height="68" viewBox="0 0 164 68" fill="none" xmlns="http://www.w3.org/2000/svg">
<path fill-rule="evenodd" clip-rule="evenodd" d="M107.109 17.5544C107.797 17.5544 108.486 17.325 109.002 16.6939C109.69 15.8907 109.805 14.9729 109.576 13.9976C109.346 13.0223 108.773 12.3339 107.797 12.1044C106.765 11.8176 105.847 12.0471 105.101 12.7929C104.642 13.2518 104.47 13.8255 104.413 14.4565C104.24 16.1202 105.216 17.5544 107.109 17.5544ZM102.405 6.82657H104.355V11.3587C104.527 11.1866 104.699 11.0718 104.871 10.9571C105.904 10.2687 107.051 10.0966 108.199 10.326C110.035 10.6702 111.239 11.9323 111.584 13.7681C111.813 14.9729 111.698 16.1202 111.125 17.1529C110.494 18.415 109.404 19.1034 108.027 19.2755C107.051 19.3902 106.076 19.2755 105.216 18.8165C104.871 18.5871 104.527 18.3576 104.183 18.0707V19.1034H102.405V6.82657Z" fill="black"/>
<path fill-rule="evenodd" clip-rule="evenodd" d="M122.711 12.0475C121.908 12.0475 121.162 12.3917 120.646 13.1375C120.244 13.7112 120.13 14.3422 120.187 15.0306C120.244 16.0633 120.703 16.8664 121.679 17.3254C122.711 17.7269 123.686 17.6696 124.547 16.9238C125.293 16.3501 125.522 15.4896 125.465 14.5717C125.407 13.1375 124.317 12.0475 122.711 12.0475ZM125.694 11.5885C125.694 11.2443 125.694 10.9575 125.694 10.6133C125.694 10.4985 125.752 10.4412 125.866 10.4412C126.325 10.4412 126.784 10.4412 127.243 10.4412C127.415 10.4412 127.415 10.4985 127.415 10.6707C127.415 12.3917 127.415 14.0554 127.415 15.7764C127.415 16.8664 127.415 17.9564 127.415 18.989C127.415 19.0464 127.415 19.1038 127.415 19.1612H125.637V18.0712C125.35 18.3006 125.121 18.5301 124.834 18.7022C123.858 19.3333 122.768 19.5054 121.679 19.3333C119.613 19.0464 118.294 17.3827 118.122 15.3748C118.007 14.3422 118.179 13.367 118.638 12.4491C119.441 10.9575 120.761 10.2691 122.482 10.2691C123.342 10.2691 124.203 10.4985 124.948 11.0149C125.235 11.1296 125.465 11.3591 125.694 11.5885Z" fill="black"/>
<path fill-rule="evenodd" clip-rule="evenodd" d="M84.5594 14.8581C84.5594 14.4565 84.502 14.0549 84.3299 13.6533C83.5841 11.8749 81.4615 11.7602 80.3141 12.5633C79.4536 13.1944 79.052 14.3991 79.2815 15.5465C79.7404 17.497 81.6909 18.0133 83.0678 17.3249C84.1004 16.8086 84.502 15.9481 84.5594 14.8581ZM86.5099 19.1607H84.7315V18.0707C84.6741 18.0707 84.6741 18.0707 84.6741 18.0707C84.043 18.7591 83.2399 19.1607 82.322 19.2754C81.232 19.4475 80.1994 19.2754 79.2241 18.7017C78.1341 18.0133 77.5604 16.9807 77.3309 15.7186C77.1588 14.7433 77.2162 13.7681 77.6178 12.8502C78.1915 11.416 79.2815 10.5554 80.8304 10.326C81.9778 10.1539 83.0678 10.326 84.043 10.957C84.2725 11.1291 84.502 11.3586 84.7888 11.5881V10.4981H86.5672V19.1607H86.5099Z" fill="black"/>
<path fill-rule="evenodd" clip-rule="evenodd" d="M139.806 6.82657H141.756V14.055H141.813C142.1 13.7108 142.444 13.3665 142.731 12.965C143.42 12.1618 144.108 11.3587 144.797 10.5555C144.854 10.4981 144.911 10.4408 145.026 10.4408C145.772 10.4408 146.46 10.4408 147.206 10.4408C147.206 10.4408 147.263 10.4408 147.321 10.4408C146.116 11.8176 144.911 13.1944 143.707 14.5713C145.083 16.0629 146.46 17.5544 147.894 19.1034C147.837 19.1034 147.78 19.1034 147.722 19.1034C146.977 19.1034 146.231 19.1034 145.485 19.1034C145.37 19.1034 145.256 19.046 145.198 18.9886C144.108 17.8413 143.076 16.6365 141.986 15.4892C141.928 15.4318 141.871 15.3744 141.813 15.3171V19.1034H139.806V6.82657Z" fill="black"/>
<path fill-rule="evenodd" clip-rule="evenodd" d="M137.684 11.5879C137.283 12.0469 136.881 12.4485 136.479 12.85C135.217 11.6453 133.267 11.8748 132.349 12.9074C131.488 13.94 131.488 15.7185 132.406 16.7511C133.267 17.7263 135.275 17.9558 136.537 16.6364C136.938 17.0953 137.34 17.4969 137.741 17.9558C137.053 18.5869 136.307 19.0458 135.389 19.2179C134.357 19.39 133.324 19.3327 132.349 18.9311C131.029 18.4148 130.169 17.4395 129.882 16.0053C129.538 14.6858 129.653 13.3664 130.398 12.1616C131.087 11.0143 132.119 10.4406 133.439 10.2111C134.988 9.98164 136.422 10.3258 137.569 11.4158C137.627 11.5306 137.627 11.5306 137.684 11.5879Z" fill="black"/>
<path fill-rule="evenodd" clip-rule="evenodd" d="M96.1492 19.1611H94.1987V10.4412H95.9771V11.7033H96.0345C96.6656 10.728 97.5261 10.2117 98.6735 10.2117C99.534 10.2117 100.394 10.4985 100.853 10.9575C100.739 11.2443 100.567 11.4738 100.395 11.7606C100.28 12.0475 100.108 12.277 99.9929 12.5064C99.7634 12.3917 99.534 12.277 99.2471 12.1622C97.8129 11.7033 96.5508 12.5064 96.264 13.998C96.2066 14.2848 96.2066 14.6291 96.2066 14.9159C96.2066 16.178 96.2066 17.4401 96.2066 18.7596V19.1611H96.1492Z" fill="black"/>
<path fill-rule="evenodd" clip-rule="evenodd" d="M113.932 19.1607H115.882V6.82657H113.932V19.1607Z" fill="black"/>
<path fill-rule="evenodd" clip-rule="evenodd" d="M91.3291 19.1611H89.3785V10.4411C89.4359 10.4411 89.4933 10.4411 89.5506 10.4411C90.067 10.4411 90.6406 10.4411 91.157 10.4411C91.2717 10.4411 91.3291 10.4985 91.3291 10.6132C91.3291 13.4243 91.3291 16.2353 91.3291 18.989C91.3291 19.0464 91.3291 19.1037 91.3291 19.1611Z" fill="black"/>
<path fill-rule="evenodd" clip-rule="evenodd" d="M89.0936 7.91628C89.0936 7.1705 89.6099 6.71155 90.3557 6.71155C91.1015 6.71155 91.6178 7.22786 91.6178 7.91628C91.6178 8.6047 91.1015 9.12101 90.3557 9.12101C89.6673 9.17838 89.0936 8.66207 89.0936 7.91628Z" fill="black"/>
<path fill-rule="evenodd" clip-rule="evenodd" d="M87.5412 33.6174C87.4838 33.388 87.4838 33.0437 87.4264 32.6995C87.0822 31.3801 86.3364 30.5195 85.017 30.2327C83.6401 29.8885 82.4354 30.1753 81.4601 31.2653C80.7144 32.1832 80.4849 33.2158 80.657 34.3632C81.0586 37.0022 83.6975 37.8627 85.5907 37.0022C86.9675 36.3711 87.4838 35.2237 87.5412 33.6174ZM80.3701 38.8379L80.198 39.9279C80.198 39.9853 80.1407 40.0427 80.0833 40.0427H77.4444C77.387 40.0427 77.3296 39.9853 77.3296 39.9279V22.3159C77.3296 22.2585 77.387 22.2011 77.4444 22.2011H80.5422C80.5996 22.2011 80.657 22.2585 80.657 22.3159V28.6838C80.657 28.6838 80.7717 28.569 80.8291 28.5116C82.1486 27.3643 83.6975 26.9627 85.3612 27.1348C87.0822 27.2495 88.4591 27.9953 89.5491 29.3148C90.2948 30.2901 90.6964 31.3801 90.8685 32.5848C91.0406 34.0764 90.9259 35.5679 90.2375 36.9448C89.2622 38.9527 87.5985 40.0427 85.3612 40.2148C83.927 40.3295 82.6075 40.1 81.4028 39.2969C81.1159 39.1248 80.8865 38.8953 80.5996 38.6658C80.4849 38.6658 80.3701 38.7232 80.3701 38.8379Z" fill="#F56563"/>
<path fill-rule="evenodd" clip-rule="evenodd" d="M110.891 33.7896C110.891 33.9617 110.949 34.1912 110.949 34.4206C111.407 37.3464 114.505 37.9775 116.341 36.7727C117.661 35.8548 118.12 34.0764 117.661 32.5275C116.915 30.0606 114.219 29.7164 112.67 30.5196C111.465 31.208 110.949 32.3554 110.891 33.7896ZM118.12 28.6264L118.292 27.5364C118.292 27.4791 118.349 27.4217 118.406 27.4217H121.045C121.103 27.4217 121.16 27.4791 121.16 27.5364V39.8133C121.16 39.8706 121.103 39.928 121.045 39.928H118.406C118.349 39.928 118.292 39.8706 118.292 39.8133C118.234 39.3543 118.177 38.9527 118.062 38.4364C118.005 38.4938 117.947 38.5511 117.89 38.6085C116.743 39.6985 115.366 40.1575 113.817 40.2148C111.809 40.2148 110.088 39.5264 108.883 37.9201C108.08 36.8875 107.736 35.6827 107.621 34.4206C107.506 32.9291 107.679 31.4949 108.424 30.1754C109.4 28.397 110.891 27.4217 112.842 27.1349C114.391 26.9054 115.825 27.1922 117.144 28.0528C117.431 28.2249 117.661 28.4543 117.89 28.6838C117.947 28.7985 118.062 28.7412 118.12 28.6264Z" fill="#F56563"/>
<path fill-rule="evenodd" clip-rule="evenodd" d="M96.3227 32.5852H102.461C102.518 32.5852 102.633 32.5278 102.576 32.4131C102.461 31.5526 102.06 30.8642 101.256 30.4052C100.511 29.9463 99.7074 29.8889 98.8469 29.9463C97.4701 30.061 96.3801 30.9789 96.1506 32.4131C96.1506 32.5278 96.208 32.5852 96.3227 32.5852ZM105.674 34.8799H96.2653C96.208 34.8799 96.0932 34.9373 96.1506 35.052C96.2653 35.6257 96.4948 36.0847 96.8964 36.4862C97.5274 37.1173 98.3306 37.4041 99.1911 37.5189C100.453 37.6336 102.002 37.3468 103.15 36.4862C103.207 36.4289 103.264 36.4289 103.322 36.4862C103.608 36.7731 103.895 37.0599 104.182 37.2894C104.469 37.5762 104.756 37.8057 105.1 38.0926C105.157 38.1499 105.157 38.2647 105.1 38.322C104.756 38.6089 104.526 38.8383 104.24 39.0105C102.289 40.3299 100.166 40.6168 97.8716 40.2152C96.3227 39.9283 94.9459 39.2399 93.9706 37.9778C93.1674 37.0026 92.7659 35.8552 92.7085 34.5931C92.5938 33.1589 92.7659 31.7247 93.4543 30.4052C94.3722 28.6842 95.8637 27.7089 97.6995 27.3073C99.1911 27.0205 100.683 27.0779 102.117 27.6515C104.182 28.3973 105.387 29.9463 105.788 32.1263C105.961 32.9868 105.961 33.8473 105.846 34.7652C105.788 34.8226 105.731 34.8799 105.674 34.8799Z" fill="#F56563"/>
<path fill-rule="evenodd" clip-rule="evenodd" d="M151.739 45.6656C152.026 45.0345 153.575 41.4203 154.149 40.1008C154.206 39.9861 154.206 39.7566 154.149 39.5845C152.772 36.1424 150.133 29.4877 149.444 27.7667C149.387 27.5946 149.502 27.3651 149.731 27.3651C150.42 27.3651 151.854 27.3651 152.657 27.3651C152.829 27.3651 153.001 27.4798 153.059 27.6519C153.919 30.004 155.526 34.4787 156.042 35.7982C156.099 35.913 156.271 35.913 156.329 35.7982C156.96 34.1919 159.484 27.824 159.599 27.5372C159.656 27.4798 159.713 27.3651 159.828 27.3651C160.746 27.3651 162.467 27.3651 163.098 27.3651C163.213 27.3651 163.27 27.4798 163.27 27.5946C162.41 29.5451 156.214 43.9445 155.64 45.3213C155.526 45.5508 155.411 45.6656 155.181 45.6656C154.206 45.6656 153.173 45.6656 152.198 45.6656H151.739Z" fill="#F56563"/>
<path fill-rule="evenodd" clip-rule="evenodd" d="M124.434 27.4224H127.531C127.589 27.4224 127.646 27.4798 127.646 27.5372C127.646 28.3403 127.646 32.2987 127.646 34.3066C127.646 35.0524 127.761 35.7408 128.22 36.3145C128.908 37.2324 129.883 37.4619 130.973 37.2324C132.293 36.9456 133.153 35.9129 133.268 34.5361C133.268 34.2492 133.326 33.905 133.326 33.6182C133.326 31.8398 133.326 28.3403 133.326 27.5945C133.326 27.5372 133.383 27.4798 133.44 27.4798H136.538C136.596 27.4798 136.653 27.5372 136.653 27.5945V39.8713C136.653 39.9287 136.596 39.9861 136.538 39.9861H133.899C133.842 39.9861 133.785 39.9287 133.785 39.8713C133.727 39.4698 133.67 39.0682 133.555 38.6092C133.498 38.6666 133.44 38.6666 133.44 38.6666C132.064 40.0434 130.342 40.445 128.507 40.1582C126.327 39.814 124.778 38.265 124.376 35.9703C124.261 35.454 124.261 34.8803 124.261 34.364C124.261 32.3561 124.261 28.3403 124.261 27.5945C124.319 27.5372 124.376 27.4224 124.434 27.4224Z" fill="#F56563"/>
<path fill-rule="evenodd" clip-rule="evenodd" d="M141.241 30.233H139.291C139.233 30.233 139.176 30.1756 139.176 30.1182V27.6514C139.176 27.594 139.233 27.5367 139.291 27.5367H141.241C141.299 27.5367 141.356 27.4793 141.356 27.4219V24.4961C141.356 24.4388 141.413 24.3814 141.471 24.3814C142.503 24.2667 143.536 24.1519 144.569 24.0372C144.626 24.0372 144.741 24.0946 144.741 24.1519V27.3072C144.741 27.3646 144.798 27.4219 144.856 27.4219H147.953C148.011 27.4219 148.068 27.4793 148.068 27.5367V30.0609C148.068 30.1182 148.011 30.1756 147.953 30.1756H144.856C144.798 30.1756 144.741 30.233 144.741 30.2903C144.741 30.9788 144.741 33.9619 144.741 35.4535C144.741 35.6829 144.741 35.9124 144.798 36.0845C145.028 36.9451 145.773 37.404 146.749 37.1745C147.093 37.1172 147.38 37.0024 147.724 36.9451C147.781 36.9451 147.896 36.9451 147.896 37.0598C148.183 37.8056 148.412 38.6087 148.699 39.4119C148.699 39.4693 148.699 39.584 148.642 39.584C148.47 39.6414 148.24 39.7561 148.068 39.8135C146.863 40.215 145.659 40.3298 144.454 40.0429C142.905 39.7561 141.987 38.7808 141.643 37.2319C141.528 36.6008 141.471 35.9698 141.413 35.3387C141.413 33.9045 141.413 30.9788 141.413 30.2903C141.356 30.2903 141.299 30.233 141.241 30.233Z" fill="#F56563"/>
<path fill-rule="evenodd" clip-rule="evenodd" d="M116.858 54.9016C116.915 56.9095 118.12 58.2863 119.899 58.5158C121.275 58.6879 122.767 58.1142 123.398 56.68C123.742 55.9342 123.857 55.1884 123.742 54.3279C123.513 52.0905 121.447 50.8284 119.325 51.4021C117.776 51.861 116.858 53.2379 116.858 54.9016ZM116.743 43.3705C116.858 43.3705 116.915 43.4279 116.915 43.5427V49.7958C117.087 49.681 117.26 49.6237 117.374 49.5089C120.128 47.329 125.865 47.8453 127.012 53.1805C127.414 55.0737 127.242 56.9668 126.266 58.6305C125.176 60.4663 123.57 61.3842 121.447 61.4989C119.956 61.5563 118.579 61.2694 117.374 60.2942C117.202 60.1221 116.973 59.95 116.743 59.7779L116.514 61.04C116.514 61.1547 116.399 61.2694 116.284 61.2694H113.875C113.76 61.2694 113.645 61.1547 113.645 61.04V43.6C113.645 43.4853 113.703 43.4279 113.817 43.4279L116.743 43.3705Z" fill="#F56563"/>
<path fill-rule="evenodd" clip-rule="evenodd" d="M107.107 48.6478H109.861C110.033 48.6478 110.205 48.8199 110.205 48.992V61.0393C110.205 61.154 110.147 61.2114 110.033 61.2114L107.451 61.2688C107.394 61.2688 107.279 61.2114 107.279 61.154L107.05 59.9493C106.877 60.064 106.763 60.1788 106.648 60.2935C105.042 61.613 103.206 61.9572 101.255 61.3835C99.5917 60.9246 98.5591 59.7198 98.0427 58.1135C97.8706 57.4825 97.6985 56.7941 97.6985 56.163C97.6412 54.1551 97.6985 50.3114 97.6985 49.1641C97.6985 48.992 97.8706 48.8199 98.0427 48.8199H100.796C100.969 48.8199 101.141 48.9346 101.141 49.1641C101.141 50.2541 101.141 53.7535 101.141 55.4172C101.141 55.9335 101.198 56.4499 101.313 56.9088C101.6 57.9988 102.632 58.6872 103.78 58.6872C105.329 58.6872 106.419 57.7693 106.705 56.2204C106.763 55.8762 106.763 55.4746 106.82 55.073C106.82 53.5241 106.82 50.1967 106.82 49.1067C106.82 48.7625 106.935 48.6478 107.107 48.6478Z" fill="#F56563"/>
<path fill-rule="evenodd" clip-rule="evenodd" d="M88.921 50.3117C87.6589 51.5738 88.1752 51.0575 86.9131 52.3196C85.8805 51.4591 84.7905 51.1149 83.471 51.3444C82.6679 51.4591 81.9795 51.8607 81.4631 52.4917C80.3158 53.8112 80.3731 56.1059 81.5205 57.4254C82.2663 58.2285 83.2416 58.5728 84.3316 58.5728C85.3068 58.5728 85.7658 58.3433 87.1426 57.368L89.0931 59.4907C87.9457 60.638 86.5689 61.3264 84.9626 61.4985C83.5858 61.6133 82.2663 61.4985 80.9468 60.9822C78.7668 60.0643 77.6195 58.3433 77.2753 55.9912C77.1032 54.9586 77.2179 53.8686 77.5047 52.8933C78.0784 50.828 79.3979 49.4512 81.4058 48.8202C83.5284 48.1317 85.5937 48.1891 87.6015 49.3938C88.1179 49.5659 88.5194 49.8528 88.921 50.3117Z" fill="#F56563"/>
<path fill-rule="evenodd" clip-rule="evenodd" d="M91.2702 60.9826V43.5427C91.2702 43.4279 91.3276 43.3705 91.4423 43.3705H94.4255C94.5402 43.3705 94.5976 43.4279 94.5976 43.5427V60.9252C94.5976 61.04 94.5402 61.0973 94.4255 61.0973H91.4423C91.3276 61.1547 91.2702 61.0973 91.2702 60.9826Z" fill="#F56563"/>
<path fill-rule="evenodd" clip-rule="evenodd" d="M33.7899 48.3041C25.8157 48.3041 19.3331 41.8214 19.3331 33.8473C19.3331 25.8731 25.8157 19.3905 33.7899 19.3905C41.7641 19.3905 48.2467 25.8731 48.2467 33.8473C48.2467 41.8214 41.8214 48.3041 33.7899 48.3041ZM33.7899 0C25.0126 0 16.981 3.32736 11.0147 8.83471L2.58157 0.458947C1.60631 -0.516313 0 0.172104 0 1.54894V33.8473C0 52.4919 15.1452 67.6372 33.7899 67.6372C42.5672 67.6372 50.5988 64.3098 56.5651 58.8024L64.9409 67.1782C65.9161 68.1535 67.5224 67.465 67.5224 66.0882V33.7899C67.5798 15.1452 52.4346 0 33.7899 0Z" fill="#F56563"/>
</svg>
